<svg id="Layer_1" data-name="Layer 1" xmlns="http://www.w3.org/2000/svg" viewBox="0 0 50 50"><path d="M3.5,35.9341c1.39809-1.57358,2.92926-3.01676,4.42493-4.494a2.22271,2.22271,0,0,1,1.80971-.60926.41607.41607,0,0,0,.45688-.2491,10.15532,10.15532,0,0,1,8.34684-5.04393,10.6912,10.6912,0,0,1,4.96434.72014,1.48947,1.48947,0,0,0,.57632.07224c2.8495.00016,5.6991.01349,8.54846-.00652a3.61261,3.61261,0,0,1,2.90683,1.11326c.18843.20955.259.0183.35051-.07534q1.66944-1.70811,3.33244-3.42251c.5258-.54076,1.0464-1.08667,1.5771-1.62259a3.31133,3.31133,0,0,1,5.42315,1.02688,3.37587,3.37587,0,0,1-.53138,3.57473C44.12355,28.76,42.5836,30.62115,41.0339,32.474c-.79725.9532-1.606,1.897-2.39016,2.86087a7.24982,7.24982,0,0,1-5.84837,2.7518c-3.58964.02489-7.18019.04424-10.76907-.01369a3.75391,3.75391,0,0,0-2.864,1.47192c-.09786.10137-.06064.19876-.03795.30895a2.5519,2.5519,0,0,1-.74837,2.48342c-1.28655,1.26148-2.56491,2.5313-3.8505,3.79377a.87372.87372,0,0,1-1.44333-.01467q-4.592-4.623-9.178-9.252A5.64158,5.64158,0,0,1,3.5,36.35321Zm23.72229.48166c1.82952,0,3.65912.01086,5.48854-.003a5.71768,5.71768,0,0,0,4.676-2.19086c.73985-.92745,1.51957-1.8231,2.28108-2.73328q2.37861-2.843,4.75444-5.68822a1.676,1.676,0,0,0-2.44708-2.28963c-1.808,1.8453-3.60365,3.70273-5.40545,5.55414a.42626.42626,0,0,0-.16007.36153A3.40215,3.40215,0,0,1,32.783,33.06467c-2.08024-.03753-4.1617-.00672-6.24261-.00972a2.43017,2.43017,0,0,1-.53981-.04652.82353.82353,0,0,1,.06328-1.61113,3.18622,3.18622,0,0,1,.50092-.02714q3.12138-.00252,6.24275-.00253a3.54594,3.54594,0,0,0,.54221-.03348,1.65272,1.65272,0,0,0,1.35866-1.93248,1.69254,1.69254,0,0,0-1.85848-1.39053q-4.504-.00562-9.008-.0016a1.81205,1.81205,0,0,1-.73935-.10371,9.41306,9.41306,0,0,0-5.33391-.59332A8.361,8.361,0,0,0,11.691,31.32729a.4431.4431,0,0,0,.07489.66347q2.99259,2.96209,5.95229,5.95717c.29453.29946.44281.275.69974-.01042a4.601,4.601,0,0,1,3.777-1.534C23.86917,36.457,25.54639,36.41578,27.22229,36.41576Zm-9.71076,4.03907a.86463.86463,0,0,0-.30442-.66226q-3.49464-3.49092-6.98893-6.98219a.82808.82808,0,0,0-1.31668.00955c-1.04921,1.04248-2.088,2.09542-3.13816,3.137-.147.14576-.17377.23075-.01184.39321q3.93033,3.9432,7.84565,7.90131c.16023.16194.25923.18816.43283.01477,1.06616-1.06491,2.14251-2.11963,3.216-3.17722A.80914.80914,0,0,0,17.51153,40.45483Z" fill="#030303"/><path d="M29.5684,3.495a4.6472,4.6472,0,0,0,1.06944.23578,9.23013,9.23013,0,1,1-3.69857-.09187c.1492-.02753.337.01583.44978-.14391ZM28.558,20.2792A7.55223,7.55223,0,1,0,21.01234,12.715,7.54366,7.54366,0,0,0,28.558,20.2792Z" fill="#030302"/><path d="M27.22229,36.41577c-1.6759,0-3.35312.04118-5.02733-.01222a4.601,4.601,0,0,0-3.777,1.534c-.25693.28545-.40521.30988-.69974.01042q-2.95251-3.0019-5.95229-5.95717a.4431.4431,0,0,1-.07489-.66347,8.361,8.361,0,0,1,6.07763-4.01478,9.41306,9.41306,0,0,1,5.33391.59332,1.81205,1.81205,0,0,0,.73935.10371q4.504.00033,9.008.0016a1.69254,1.69254,0,0,1,1.85848,1.39053,1.65272,1.65272,0,0,1-1.35866,1.93248,3.54594,3.54594,0,0,1-.54221.03348q-3.12137.00333-6.24275.00253a3.18622,3.18622,0,0,0-.50092.02714.82353.82353,0,0,0-.06328,1.61113,2.43017,2.43017,0,0,0,.53981.04652c2.08091.003,4.16237-.02781,6.24261.00972a3.40215,3.40215,0,0,0,3.62683-3.63824.42626.42626,0,0,1,.16007-.36153c1.8018-1.85141,3.59743-3.70884,5.40545-5.55414a1.676,1.676,0,0,1,2.44708,2.28963q-2.3673,2.85234-4.75444,5.68822c-.76151.91018-1.54123,1.80583-2.28108,2.73328a5.71768,5.71768,0,0,1-4.676,2.19086C30.88141,36.42662,29.05181,36.41576,27.22229,36.41577Zm-3.6821-4.34858a.81781.81781,0,0,0-.80993-.83295.84094.84094,0,0,0-.86325.83145.86366.86366,0,0,0,.82032.84208A.83578.83578,0,0,0,23.54019,32.06719Z" fill="#fbcfa2"/><path d="M17.51161,40.45428a.80985.80985,0,0,1-.26566.63469c-1.07346,1.05759-2.14981,2.11231-3.216,3.17722-.1736.17339-.2726.14717-.43283-.01477q-3.9159-3.95751-7.84565-7.90131c-.16193-.16246-.13512-.24745.01184-.39321,1.05012-1.04155,2.08895-2.09449,3.13816-3.137a.82808.82808,0,0,1,1.31668-.00955q3.49842,3.48714,6.98893,6.98219A.86468.86468,0,0,1,17.51161,40.45428Z" fill="#019342"/><path d="M28.558,20.2792a7.55224,7.55224,0,1,1,7.55489-7.55546A7.54331,7.54331,0,0,1,28.558,20.2792Z" fill="#fdcb68"/><path d="M23.54019,32.06719a.83578.83578,0,0,1-.85286.84058.86366.86366,0,0,1-.82032-.84208.84094.84094,0,0,1,.86325-.83145A.81781.81781,0,0,1,23.54019,32.06719Z" fill="#070604"/><path d="M31.38529,8.88206c.13541.055.16724.1023.168.25669.00091.18468.00138.36937-.00014.554-.00148.18042-.07025.24932-.25.24963q-.71157.00124-1.42283.00028c-.01372.03513.013.05183.02656.0713a2.09913,2.09913,0,0,1,.33465.75652c.01663.07557.04677.09989.12791.09823.3135-.0064.62722-.003.94085-.00244.18819.00033.25359.06571.25418.25341.0006.19054.00137.38109-.00025.57162-.00139.16253-.07414.23378-.23842.23425-.3195.00091-.639.0017-.95848-.001-.05887-.0005-.08433.00963-.09644.07579a2.368,2.368,0,0,1-.95921,1.53934,3.12137,3.12137,0,0,1-1.26757.53054c-.10907.02127-.219.03787-.32993.05684-.00507.03136.02315.044.0392.06135.99479,1.07686,1.92613,2.208,2.8573,3.33927a.20492.20492,0,0,1,.0496.23976.218.218,0,0,1-.22349.121c-.38984-.002-.77971-.00262-1.16953.00045a.27074.27074,0,0,1-.22718-.10629c-.7872-.94234-1.58092-1.87915-2.40088-2.79332q-.35224-.39272-.71276-.778a.35432.35432,0,0,1-.10407-.26772c.00585-.22556.00154-.45139.00184-.67711.00026-.1914.07447-.26448.2643-.26692.35739-.0046.71532.01606,1.07209-.01872a2.20281,2.20281,0,0,0,1.14829-.38849,1.20094,1.20094,0,0,0,.42526-.58836c.02461-.07257.00575-.07957-.061-.07942q-1.28824.003-2.5765.00112a.64284.64284,0,0,1-.10516-.005.1801.1801,0,0,1-.1632-.17843c-.00461-.22849-.0053-.45721-.0007-.6857a.18543.18543,0,0,1,.1913-.18861c.03209-.00239.06443-.00176.09666-.00176q1.22229-.00014,2.44459-.00007h.10671a1.06746,1.06746,0,0,0-.43745-.45543,2.18605,2.18605,0,0,0-1.01919-.25824c-.36889-.0135-.7385-.0073-1.1078-.0091-.20819-.001-.27814-.07059-.27822-.2795-.0001-.23744.00424-.475-.00179-.71228a.25793.25793,0,0,1,.14593-.26953Z" fill="#010101"/></svg>