<svg id="Layer_1" data-name="Layer 1" xmlns="http://www.w3.org/2000/svg" viewBox="0 0 50 50"><path d="M25.72818,34.32365c-.10377-1.26658-.22112-2.70094-.49557-4.54748A6.64415,6.64415,0,0,0,22.873,25.14323L35.16354,4.02266A.993.993,0,1,0,33.447,3.02375L21.03366,24.35531c-3.06281-.58407-6.54615,1.67-7.6241,2.44352-10.92888,7.83031-6.01191,19.62039-5.961,19.73774a.99276.99276,0,0,0,.91211.60031H30.0429a.99305.99305,0,0,0,.76519-1.62541C26.184,39.91271,26.05113,38.27663,25.72818,34.32365Zm-4.50189-7.85844c1.06583.451,1.75246,1.66324,2.04146,3.60385.02637.17669.04516.33368.06868.503A7.25057,7.25057,0,0,1,15.83228,27.61C17.48315,26.67494,19.71186,25.82083,21.22629,26.46521Zm.94884,18.68549a.93344.93344,0,0,0-.05079-.128,8.73422,8.73422,0,0,1-.87187-6.46384.99323.99323,0,0,0-1.90714-.5557,10.95448,10.95448,0,0,0,.586,7.14756H15.658a.93222.93222,0,0,0-.0508-.128,8.73419,8.73419,0,0,1-.87186-6.46384.99323.99323,0,0,0-1.90715-.5557,10.95455,10.95455,0,0,0,.58595,7.14756H9.05556A14.461,14.461,0,0,1,14.167,28.7141a9.38151,9.38151,0,0,0,7.59022,4.02,10.12391,10.12391,0,0,0,1.81835-.19154c.071.7019.12371,1.34283.17269,1.94206.30549,3.74447.47327,5.79951,4.22792,10.66606Z" fill="#fff"/><path d="M28.22255,31.32982a1.24128,1.24128,0,0,0,1.24137,1.24137H41.00863a1.24137,1.24137,0,1,0,0-2.48274H29.46392A1.24128,1.24128,0,0,0,28.22255,31.32982Z" fill="#fff"/><path d="M41.00863,35.6746H31.45205a1.24137,1.24137,0,0,0,0,2.48274h9.55658a1.24137,1.24137,0,1,0,0-2.48274Z" fill="#fff"/><path d="M41.00863,41.38489H35.4283a1.24137,1.24137,0,0,0,0,2.48274h5.58033a1.24137,1.24137,0,1,0,0-2.48274Z" fill="#fff"/></svg>