<svg id="Layer_1" data-name="Layer 1" xmlns="http://www.w3.org/2000/svg" viewBox="0 0 50 50"><path d="M48,26.79337a6.088,6.088,0,0,0-.25178,1.5133,23.53578,23.53578,0,0,1-9.30811,15.594c-.21364.15941-.25165.27222-.13442.50287.24994.49174.48147.99336.70559,1.49757a.8989.8989,0,0,1-.89445,1.3617c-1.95965-.04483-3.91881-.11062-5.8783-.1629a.88185.88185,0,0,1-.82893-.51142.85366.85366,0,0,1,.12668-.96425c1.23522-1.559,2.46289-3.12408,3.71108-4.67262a.88257.88257,0,0,1,1.54008.19313,8.98651,8.98651,0,0,1,.44975.97428c.1121.3023.22678.29809.46491.11656a19.63835,19.63835,0,0,0,3.7266-3.67884A21.88964,21.88964,0,0,0,46.18177,24.175,20.93447,20.93447,0,0,0,29.60616,4.18933a20.74451,20.74451,0,0,0-3.02441-.37687c-.65229-.03716-1.04764-.39693-1.02751-.93671a.91718.91718,0,0,1,1.09093-.85826,21.60884,21.60884,0,0,1,13.25,5.242,22.93989,22.93989,0,0,1,7.90333,14.603A5.65315,5.65315,0,0,0,48,23.20158ZM34.01322,45.39253h2.7799l-1.03344-2.2061Z" fill="#030303"/><path d="M22.40851,47.98492a11.35011,11.35011,0,0,0-1.90283-.34483,21.78549,21.78549,0,0,1-9.22781-4.10772.89673.89673,0,0,1-.21957-1.299.88019.88019,0,0,1,1.31089-.11791,20.62572,20.62572,0,0,0,5.78405,3.06095,20.13021,20.13021,0,0,0,5.16913.99994c.67518.0424.99412.23124,1.11989.6877.11569.41988-.0682.7651-.597,1.12087Z" fill="#030303"/><path d="M29.45828,21.51426c1.93674,0,3.79564-.01088,5.65433.00339a3.24219,3.24219,0,0,1,3.14927,2.56473,3.14235,3.14235,0,0,1-1.85435,3.62926,1.558,1.558,0,0,0-1.02927,1.16147c-.41426,1.3721-.89693,2.72354-1.35161,4.08344a3.26674,3.26674,0,0,1-3.32629,2.40209q-5.394.002-10.788,0a3.26585,3.26585,0,0,1-3.3215-2.40743c-.51383-1.53965-1.0322-3.07782-1.53713-4.62038a.59389.59389,0,0,0-.43655-.4493,3.24708,3.24708,0,0,1,.9323-6.36509c1.84518-.01106,3.69048-.00252,5.537-.00252.04283-.144-.07832-.19843-.13818-.27363q-1.73567-2.18046-3.47941-4.35448a1.22713,1.22713,0,0,1-.29216-.5266.81328.81328,0,0,1,.45677-.87129.78838.78838,0,0,1,1.01039.267c.87064,1.07482,1.73189,2.15724,2.59642,3.237.60175.75157,1.20813,1.49953,1.80047,2.25844a.602.602,0,0,0,.53745.26989q1.72986-.02239,3.46014-.00027a.60809.60809,0,0,0,.5392-.2679q2.12526-2.67633,4.26605-5.34031a2.52931,2.52931,0,0,1,.23786-.27773.80882.80882,0,0,1,1.259.9895,2.62784,2.62784,0,0,1-.24207.326q-1.65147,2.06522-3.30416,4.12946C29.69516,21.20287,29.60025,21.33007,29.45828,21.51426Zm4.48256,6.53814c-.12069-.00989-.20034-.02211-.28-.02213q-8.323-.00138-16.646-.00613c-.28672-.00036-.34078.064-.24747.33731.47254,1.38411.92174,2.77619,1.39445,4.16024a1.639,1.639,0,0,0,1.72618,1.20744q5.413.00246,10.826.00012a1.65577,1.65577,0,0,0,1.76137-1.27015c.394-1.16759.77935-2.33808,1.16815-3.50742C33.7409,28.659,33.83725,28.36588,33.94084,28.0524Zm-8.67523-1.65228q3.15438,0,6.30875,0c1.18035-.00007,2.36083.01013,3.541-.00445a1.62594,1.62594,0,0,0,1.58034-1.37872,1.64724,1.64724,0,0,0-1.0208-1.76171,2.14346,2.14346,0,0,0-.799-.11413q-9.5649.00315-19.12978.00176c-.10852,0-.21742-.0034-.3255.00409a1.62891,1.62891,0,0,0,.19865,3.25157Q20.44246,26.40548,25.26561,26.40012Z" fill="#010101"/><path d="M14.81114,3.43385c.972,0,1.944.00443,2.916-.00215A.90769.90769,0,0,1,18.445,4.97141c-1.20055,1.50951-2.39338,3.02518-3.5984,4.5311a.90776.90776,0,0,1-1.64594-.18136c-.15111-.30789-.30308-.6168-.42778-.93575-.10707-.27387-.20973-.2723-.43883-.10345A20.12588,20.12588,0,0,0,4.37451,20.25832,20.83753,20.83753,0,0,0,6.938,36.03713c.06826.11564.14159.22884.20169.34862a.89592.89592,0,0,1-.32065,1.21167.86244.86244,0,0,1-1.21227-.29872,18.27209,18.27209,0,0,1-1.52031-2.83791C.618,26.20061,1.446,18.42566,6.77966,11.1902A19.4269,19.4269,0,0,1,11.4319,6.74568c.36729-.2535.40667-.44994.20082-.8118-.22786-.40056-.40613-.82985-.59776-1.25038A.9157.9157,0,0,1,11.94028,3.267q1.43547.0023,2.871.00035Zm-.54778,3.9179L16.0091,5.1453H13.23738Z" fill="#030303"/><path d="M8.7582,39.18621a.89669.89669,0,1,1-.89511.87526A.904.904,0,0,1,8.7582,39.18621Z" fill="#070707"/><path d="M34.01322,45.39253l1.74646-2.2061,1.03344,2.2061Z" fill="#aeeaf8"/><path d="M33.94084,28.0524c-.10359.31348-.19994.60655-.29728.89928-.3888,1.16934-.77417,2.33983-1.16815,3.50742A1.65577,1.65577,0,0,1,30.714,33.72925q-5.413.0021-10.826-.00012a1.639,1.639,0,0,1-1.72618-1.20744c-.47271-1.384-.92191-2.77613-1.39445-4.16024-.09331-.27332-.03925-.33767.24747-.33731q8.323.01065,16.646.00613C33.7405,28.03029,33.82015,28.04251,33.94084,28.0524Z" fill="#019242"/><path d="M25.26561,26.4001q-4.82314,0-9.6463-.00161a1.62891,1.62891,0,0,1-.19865-3.25157c.10808-.00749.217-.00409.3255-.00409q9.56489-.00024,19.12978-.00176a2.14346,2.14346,0,0,1,.799.11413,1.64724,1.64724,0,0,1,1.0208,1.76171,1.62594,1.62594,0,0,1-1.58034,1.37872c-1.18017.01458-2.36065.00438-3.541.00445Q28.42,26.40026,25.26561,26.4001Z" fill="#fdcb68"/><path d="M14.26336,7.35175l-1.026-2.20645H16.0091Z" fill="#aeeaf8"/></svg>