<svg id="Layer_1" data-name="Layer 1" xmlns="http://www.w3.org/2000/svg" viewBox="0 0 50 50"><path d="M38.7,16.18635c.59134-.26528.87578-.19751,1.2397.33457a14.03312,14.03312,0,0,1,1.831,12.86585c-.02741.08474-.05467.16952-.09019.27965.26138.0595.52165.10026.77011.17848a2.969,2.969,0,0,1,2.13374,2.16542,2.82569,2.82569,0,0,1-.91235,2.92218q-3.80458,3.52851-7.61852,7.04694a4.55411,4.55411,0,0,1-3.23072,1.08321c-1.44777.0151-2.89578.00871-4.34369.00849-2.30625-.00035-4.61281.00375-6.91768-.08589a11.00342,11.00342,0,0,1-3.665-.55712c-.89014-.35069-1.75058-.77667-2.62465-1.16823-.76664-.34344-1.53385-.68559-2.31293-1.03372a2.74207,2.74207,0,0,1-2.88189,2.6192c-.691-.02588-1.38386.00443-2.07555-.00838a2.73936,2.73936,0,0,1-2.57129-1.85018c-.02746-.0758-.00173-.1892-.11657-.22225V29.38475c.01156-.00553.03-.00816.0337-.017a2.80772,2.80772,0,0,1,3.13345-2.07836c.615.00023,1.23045-.01121,1.84486.00871a2.68075,2.68075,0,0,1,2.49742,1.83c.06643.18861.09432.2585.29513.12778a4.87855,4.87855,0,0,1,1.394-.62287c.20236-.05455.23152-.1335.18289-.32129a13.93072,13.93072,0,0,1,.05594-7.35966.34319.34319,0,0,0-.12947-.36463,14.09142,14.09142,0,0,1-3.57946-6.84362,9.37323,9.37323,0,0,1-.19085-2.33,1.609,1.609,0,0,1,.85-1.45043Q14.40966,8.48561,17.12584,7.022a.74024.74024,0,0,1,.73633.00694Q20.56042,8.48517,23.25453,9.949a1.41586,1.41586,0,0,1,.77226.95722c.05322.2655.14123.30749.39981.22883A13.54851,13.54851,0,0,1,28.9,10.56668,14.20647,14.20647,0,0,1,34.03314,11.724a.821.821,0,0,1,.50388,1.11966c-.39237.456-.626.50837-1.21177.26711a12.59967,12.59967,0,0,0-8.96668-.33905.42413.42413,0,0,0-.34407.385,13.79443,13.79443,0,0,1-2.9669,6.64615A9.24555,9.24555,0,0,1,18.46782,22.076a1.74367,1.74367,0,0,1-1.95149.00559c-.12513-.0776-.23814-.19665-.40415-.19672a12.62783,12.62783,0,0,0,.08535,6.08755c.08615.32837.21988.4067.53986.40578,3.86946-.0111,7.739-.00263,11.60846-.01114a2.8048,2.8048,0,0,1,1.99079.66036c.29126.26756.478.1881.71113-.00473a2.14308,2.14308,0,0,0,.30785-.28726,1.85068,1.85068,0,0,0,.32692-2.00839,1.8179,1.8179,0,0,0-1.68121-1.20216c-.99836-.03238-1.99849-.00553-2.99767-.01858a3.52184,3.52184,0,0,1-3.38706-2.312,3.47664,3.47664,0,0,1,.99231-3.84291,3.534,3.534,0,0,1,2.39624-.876c.60906-.00383.609-.00551.61008-.62849.00064-.38439-.00483-.76892.00338-1.15315a.77867.77867,0,0,1,.79075-.84779.75707.75707,0,0,1,.7546.83535c.00728.5124.00832,1.02526-.00561,1.53743-.00555.20407.06289.26444.262.2606.56356-.01087,1.12747-.00387,1.69124-.00371.48688.00014.97408-.01025,1.46057.00386a.77313.77313,0,0,1,.81109.78957.76056.76056,0,0,1-.79735.757c-.115.00628-.23055.00339-.34585.0034q-2.57538.00027-5.15078-.00071a2.25659,2.25659,0,0,0-1.11194.24319,1.97276,1.97276,0,0,0-.96987,2.18945,1.9254,1.9254,0,0,0,1.79677,1.47544c1.0115.02719,2.0243.00161,3.0363.01589a3.50945,3.50945,0,0,1,3.37867,2.42854A3.44476,3.44476,0,0,1,31.96213,30.274c-.4002.27985-.7194.51022-.62509,1.055a1.09344,1.09344,0,0,1-.08368.449,2.756,2.756,0,0,1-2.54887,1.99142c-1.63936.03356-3.27981.01532-4.9198.0159a2.19577,2.19577,0,0,0-.64671.07144.966.966,0,0,0-.70461.86564.93891.93891,0,0,0,.66646.89,1.51217,1.51217,0,0,0,.52854.07806c.66626-.00182,1.33253.00071,1.99879.0009q3.49785.001,6.99568.00131a2.44929,2.44929,0,0,0,1.82433-.72492c1.16083-1.13919,2.375-2.22433,3.576-3.32217A15.8897,15.8897,0,0,1,39.575,30.271a.93724.93724,0,0,0,.35179-.43282,12.48517,12.48517,0,0,0-1.2225-12.37751C38.34017,16.91649,38.33015,16.67215,38.7,16.18635Zm-16.471,13.731v.00256c-2.02464,0-4.04938-.01234-6.07388.0048a4.311,4.311,0,0,0-2.98136,1.22545.665.665,0,0,0-.2353.53208q.01322,3.26766-.00035,6.53539a.39048.39048,0,0,0,.27868.42175c1.54253.68128,3.08982,1.35343,4.61317,2.07579a7.1291,7.1291,0,0,0,2.70272.65356c4.08378.2246,8.172.14121,12.25881.15017a3.56917,3.56917,0,0,0,2.68191-1.09682c1.1559-1.16148,2.39687-2.23828,3.60148-3.3513,1.18579-1.09562,2.37931-2.183,3.55422-3.29019a1.39511,1.39511,0,0,0-.49752-2.40708,1.76809,1.76809,0,0,0-1.95268.39232c-1.64717,1.52142-3.30155,3.03514-4.93813,4.56786a3.15306,3.15306,0,0,1-1.73184.82969,15.61259,15.61259,0,0,1-2.4166.082c-2.53716-.00029-5.07435-.001-7.61146-.015a2.56148,2.56148,0,0,1-2.60639-2.36413,2.52443,2.52443,0,0,1,2.20536-2.57967,4.25178,4.25178,0,0,1,.6878-.049c1.56333-.00413,3.12669.00117,4.69-.00374a1.17117,1.17117,0,1,0-.00092-2.3158c-.11529-.00219-.23065-.00063-.346-.00063Q25.16989,29.91731,22.229,29.91733Zm.33638-17.81057c.0225-.76292.02258-.763-.66277-1.13371-1.38277-.74784-2.7676-1.49192-4.14616-2.24744a.48436.48436,0,0,0-.52859-.00483c-1.48006.80951-2.96175,1.61631-4.45366,2.40361a.62149.62149,0,0,0-.38967.65177,11.39891,11.39891,0,0,0,1.86685,5.8062A9.694,9.694,0,0,0,17.049,20.6002a.68345.68345,0,0,0,.887-.00986,8.36463,8.36463,0,0,0,1.95486-1.82827A12.01281,12.01281,0,0,0,22.5654,12.10676ZM11.39386,35.112q0-2.51783-.0004-5.03565a1.133,1.133,0,0,0-1.20646-1.2325q-1.05685-.01554-2.11408.00005a1.14279,1.14279,0,0,0-1.21266,1.23455q-.00178,4.978-.0001,9.956a1.13181,1.13181,0,0,0,1.15815,1.24944c.74172.03155,1.48634.02372,2.22875.00158a1.1619,1.1619,0,0,0,1.15768-1.25335C11.36838,38.39279,11.39388,36.75211,11.39386,35.112Z" fill="#020202"/><path d="M38.7,16.18635c-.36989.4858-.35987.73014.00422,1.2743a12.48517,12.48517,0,0,1,1.2225,12.37751.93724.93724,0,0,1-.35179.43282,15.8897,15.8897,0,0,0-1.55181,1.37462c-1.201,1.09784-2.41516,2.183-3.576,3.32217a2.44929,2.44929,0,0,1-1.82433.72492q-3.49783-.00011-6.99568-.00131c-.66626-.00019-1.33253-.00272-1.99879-.0009a1.51217,1.51217,0,0,1-.52854-.07806.93891.93891,0,0,1-.66646-.89.966.966,0,0,1,.70461-.86564,2.19577,2.19577,0,0,1,.64671-.07144c1.64-.00058,3.28044.01766,4.9198-.0159A2.756,2.756,0,0,0,31.25336,31.778a1.09344,1.09344,0,0,0,.08368-.449c-.09431-.54475.22489-.77512.62509-1.055a3.44476,3.44476,0,0,0,1.25711-3.89279,3.50945,3.50945,0,0,0-3.37867-2.42854c-1.012-.01428-2.0248.0113-3.0363-.01589a1.9254,1.9254,0,0,1-1.79677-1.47544,1.97276,1.97276,0,0,1,.96987-2.18945,2.25659,2.25659,0,0,1,1.11194-.24319q2.57539.00291,5.15078.00071c.1153,0,.23085.00288.34585-.0034a.76056.76056,0,0,0,.79735-.757.77313.77313,0,0,0-.81109-.78957c-.48649-.01411-.97369-.00372-1.46057-.00386-.56377-.00016-1.12768-.00716-1.69124.00371-.19915.00384-.26759-.05653-.262-.2606.01393-.51217.01289-1.025.00561-1.53743a.75707.75707,0,0,0-.7546-.83535.77867.77867,0,0,0-.79075.84779c-.00821.38423-.00274.76876-.00338,1.15315-.001.623-.001.62466-.61008.62849a3.534,3.534,0,0,0-2.39624.876,3.47664,3.47664,0,0,0-.99231,3.84291,3.52184,3.52184,0,0,0,3.38706,2.312c.99918.013,1.99931-.0138,2.99767.01858A1.8179,1.8179,0,0,1,31.68254,26.727a1.85068,1.85068,0,0,1-.32692,2.00839,2.14308,2.14308,0,0,1-.30785.28726c-.23314.19283-.41987.27229-.71113.00473a2.8048,2.8048,0,0,0-1.99079-.66036c-3.86948.00851-7.739,0-11.60846.01114-.32.00092-.45371-.07741-.53986-.40578a12.62783,12.62783,0,0,1-.08535-6.08755c.166.00007.279.11912.40415.19672a1.74367,1.74367,0,0,0,1.95149-.00559,9.24555,9.24555,0,0,0,2.57978-2.27308,13.79443,13.79443,0,0,0,2.9669-6.64615.42413.42413,0,0,1,.34407-.385,12.59967,12.59967,0,0,1,8.96668.33905c.58574.24126.8194.18893,1.21177-.26711a7.412,7.412,0,0,1,1.62584,1.00766c-.19457.514-.13151.85079.20381,1.08911a.79925.79925,0,0,0,1.06135-.14054Z" fill="#fdcb68"/><path d="M37.428,14.79986a.79925.79925,0,0,1-1.06135.14054c-.33532-.23832-.39838-.5751-.20381-1.08911.58412-.50157,1.2415-.36141,1.40673.2959A.87427.87427,0,0,1,37.428,14.79986Z" fill="#050504"/><path d="M22.229,29.91733q2.94089,0,5.88176,0c.11533,0,.23069-.00156.346.00063a1.17117,1.17117,0,1,1,.00092,2.3158c-1.56333.00491-3.12669-.00039-4.69.00374a4.25178,4.25178,0,0,0-.6878.049,2.52443,2.52443,0,0,0-2.20536,2.57967,2.56148,2.56148,0,0,0,2.60639,2.36413c2.53711.014,5.0743.01476,7.61146.015a15.61259,15.61259,0,0,0,2.4166-.082,3.15306,3.15306,0,0,0,1.73184-.82969c1.63658-1.53272,3.291-3.04644,4.93813-4.56786a1.76809,1.76809,0,0,1,1.95268-.39232,1.39511,1.39511,0,0,1,.49752,2.40708c-1.17491,1.10717-2.36843,2.19457-3.55422,3.29019-1.20461,1.113-2.44558,2.18982-3.60148,3.3513a3.56917,3.56917,0,0,1-2.68191,1.09682c-4.08684-.009-8.175.07443-12.25881-.15017A7.1291,7.1291,0,0,1,17.83,40.71515c-1.52335-.72236-3.07064-1.39451-4.61317-2.07579a.39048.39048,0,0,1-.27868-.42175q.0141-3.26766.00035-6.53539a.665.665,0,0,1,.2353-.53208,4.311,4.311,0,0,1,2.98136-1.22545c2.0245-.01714,4.04924-.0048,6.07388-.0048Z" fill="#fddad3"/><path d="M22.5654,12.10676a12.01281,12.01281,0,0,1-2.67453,6.65531A8.36463,8.36463,0,0,1,17.936,20.59034a.68345.68345,0,0,1-.887.00986,9.694,9.694,0,0,1-2.79763-3.01784,11.39891,11.39891,0,0,1-1.86685-5.8062.62149.62149,0,0,1,.38967-.65177c1.49191-.7873,2.9736-1.5941,4.45366-2.40361a.48436.48436,0,0,1,.52859.00483c1.37856.75552,2.76339,1.4996,4.14616,2.24744C22.588,11.34371,22.5879,11.34384,22.5654,12.10676Zm-5.425,4.37031a.83081.83081,0,0,0,.66094-.32157c.84847-.87247,1.70087-1.74114,2.54737-2.6155A.78436.78436,0,1,0,19.232,12.46478c-.63878.64743-1.276,1.2966-1.90316,1.95518-.15109.15864-.25258.20739-.41584.01816a4.9251,4.9251,0,0,0-.50326-.47341.77384.77384,0,0,0-1.1579-.00365.78531.78531,0,0,0,.099,1.12891c.40574.39115.82215.77122,1.23314,1.15694A.74685.74685,0,0,0,17.14038,16.47707Z" fill="#019342"/><path d="M11.39387,35.112c0,1.64011-.02549,3.28079.01087,4.92009a1.1619,1.1619,0,0,1-1.15768,1.25335c-.74241.02214-1.487.03-2.22875-.00158a1.13181,1.13181,0,0,1-1.15815-1.24944q-.00141-4.978.0001-9.956A1.14279,1.14279,0,0,1,8.07292,28.8439q1.05681-.01659,2.11408-.00005a1.133,1.133,0,0,1,1.20646,1.2325Q11.3954,32.59418,11.39387,35.112Z" fill="#019342"/><path d="M17.14038,16.47707a.74685.74685,0,0,1-.55641-.23016c-.411-.38572-.8274-.76579-1.23314-1.15694a.78531.78531,0,0,1-.099-1.12891.77384.77384,0,0,1,1.1579.00365,4.9251,4.9251,0,0,1,.50326.47341c.16326.18923.26475.14048.41584-.01816.6272-.65858,1.26438-1.30775,1.90316-1.95518A.78436.78436,0,1,1,20.34869,13.54c-.8465.87436-1.6989,1.743-2.54737,2.6155A.83081.83081,0,0,1,17.14038,16.47707Z" fill="#020302"/><path d="M30.07764,28.85074s1.11571.45484,1.2594,2.47822l1.5468-.432,2.95235-2.017L35.047,26.103l-.64309-10.46477-6.02163-1.22771-3.27389,2.63081-3.39082,4.73545,2.74773,3.80006,5.23239.78924Z" fill="#fdcb68"/><path d="M29.32988,30.08534a1.44,1.44,0,0,1-.17746-.17908c-1.22094-1.45591-2.44945-2.90528-3.74673-4.29455a.39761.39761,0,0,1-.11774-.296c.00569-.28817.00092-.57653.00217-.86481a.26534.26534,0,0,1,.30161-.30013c.441-.00674.88276.01993,1.323-.02329a2.67944,2.67944,0,0,0,1.385-.46662,1.46874,1.46874,0,0,0,.52088-.71105c.029-.08312.02-.10523-.07395-.10492-.98577.00321-1.97155.002-2.95733.002-.07118,0-.14236.00077-.21352-.00017-.197-.00261-.28414-.08928-.28559-.28874q-.0026-.35766.00012-.71537c.0017-.19354.08776-.28079.2806-.28174.395-.002.79005-.00063,1.18507-.00063l1.97836,0a.92091.92091,0,0,0-.22211-.32185,1.82267,1.82267,0,0,0-.91916-.463,4.35674,4.35674,0,0,0-.98518-.09262c-.32741-.001-.65481-.00006-.98222-.00029-.24789-.00018-.33565-.08653-.33584-.33039-.00024-.299-.00079-.59793.00019-.89689.00071-.21848.08581-.30375.30339-.30378q3.17086-.00042,6.34173,0c.2232,0,.309.085.31055.30908q.00228.33631-.00005.67266c-.00163.22314-.08566.30541-.31173.30568q-.8592.001-1.71821.00023c-.02068.04075.0134.0612.02966.08448a2.552,2.552,0,0,1,.40941.92855c.01815.08382.05.1124.14038.11089.38424-.00639.76865-.00312,1.153-.00255.23019.00035.31035.079.31118.30509.00084.23134.00155.46269-.00023.694-.00153.19844-.08931.28636-.28689.287-.39146.00125-.78292.00047-1.17439.00029-.04941,0-.09023-.00871-.10473.06693a3.04626,3.04626,0,0,1-2.34305,2.44942c-.12557.03742-.25481.06345-.38339.08961-.1274.02593-.25613.04533-.39838.07.09744.10775.18674.20757.27719.30635,1.13219,1.23649,1.9208,2.554,2.98526,3.84819.14144.172.09838.3336-.11.43033C30.16553,30.10768,29.88508,30.08534,29.32988,30.08534Z" fill="#010101"/></svg>