<svg id="Layer_1" data-name="Layer 1" xmlns="http://www.w3.org/2000/svg" viewBox="0 0 50 50"><path d="M31.24638,48.46807a1.89543,1.89543,0,0,1-1.85194-1.994c-.04642-1.15238-.045-2.30917-.00228-3.4617.02474-.66728-.18063-.89457-.87175-.88937-.72015.00543-.86424.31175-.84465.93932.03419,1.0954.02138,2.19286.00457,3.2891a1.85506,1.85506,0,0,1-1.99476,2.09395c-1.35224-.00207-1.94058-.842-1.95637-2.1311-.012-.98093-.03089-1.963.00323-2.94286.02666-.76556.00822-1.28537-1.05323-1.26564-1.00062.01861-1.29659.33032-1.22822,1.28937a28.07192,28.07192,0,0,1,.00115,3.11465A1.80652,1.80652,0,0,1,19.48644,48.448a1.79931,1.79931,0,0,1-1.95483-1.949c-.044-1.32567.40982-2.903-.16246-3.91112-.595-1.0482-2.38878-.39135-3.61027-.85154a7.563,7.563,0,0,1-4.97-7.20656c-.02855-1.146-.33331-1.50072-1.44718-1.40035a25.54432,25.54432,0,0,1-3.11371.01011,2.00391,2.00391,0,1,1-.06852-4.00617c1.0347-.06467,2.07661-.004,3.11463-.02858.68707-.01625,1.52388.29724,1.505-.9944-.01782-1.21553-.81242-.8586-1.42-.87977-1.03736-.03616-2.07874.02673-3.11487-.02422a2.02434,2.02434,0,1,1,.06374-4.04254c1.15312-.032,2.30922-.04421,3.46122.003.73389.03,1.00752-.19179,1.00342-.96558-.00422-.79564-.33678-.97286-1.04236-.94973-1.15263.03779-2.309.04172-3.46109-.00641a2.01146,2.01146,0,1,1,.02146-4.01518c.173-.00335.34619-.00069.51927-.00261,1.20953-.01345,2.64024.36674,3.56585-.15292.91024-.511.32006-2.09322.59628-3.18278a7.54411,7.54411,0,0,1,7.23241-5.62543c1.03023-.03264,1.46007-.23957,1.33357-1.33564-.0986-.85424-.00205-1.72944-.02311-2.59458-.03442-1.41337.46318-2.435,2.02821-2.40487,1.44868.02788,1.96045.98981,1.92788,2.33569a21.80619,21.80619,0,0,0,.01033,2.24941c.05813.73158-.50057,1.7859,1.07636,1.7498,1.63545-.03744.85993-1.15955.95553-1.83365.11235-.79215-.01119-1.6146.03858-2.41952.07785-1.25877.69008-2.0958,2.03924-2.08572,1.356.01014,1.93879.87759,2.00216,2.12586.04968.97858,0,1.96182.01625,2.94263.00967.58477-.23582,1.2551.84573,1.27006,1.01029.014.94517-.521.93061-1.18824-.02141-.98061-.00842-1.962-.00433-2.94309.00532-1.27775.571-2.13168,1.90461-2.207,1.356-.07657,2.017.7498,2.09219,2.01305.07871,1.32291-.40959,2.92769.18246,3.90447.63466,1.04709,2.41856.263,3.68358.67152A7.36294,7.36294,0,0,1,42.562,15.59415c-.00729,1.41869.44236,1.79,1.744,1.65235a16.10355,16.10355,0,0,1,2.76663-.00036A1.88951,1.88951,0,0,1,49,19.26853,1.85331,1.85331,0,0,1,47.16522,21.207a32.59248,32.59248,0,0,1-3.63134.04324c-.80676-.02421-.9339.36237-.94275,1.05754-.00932.73341.33326.86778.94816.853,1.038-.02486,2.077-.00545,3.11558-.00633,1.35087-.00115,2.31.62431,2.33653,1.99428.02653,1.373-.90927,2.04222-2.26185,2.06723-1.03823.01919-2.078.03187-3.11534-.004-.70247-.02432-1.03334.15319-1.029.95508.00433.80767.36019.97019,1.04861.95063,1.03771-.02949,2.07734-.02389,3.1154-.0003,1.35314.03075,2.28185.70491,2.24539,2.08283a1.9467,1.9467,0,0,1-2.19319,1.94794c-1.26854.01-2.73486-.369-3.75155.14325-1.07826.54324-.29472,2.17567-.64329,3.30823a7.4,7.4,0,0,1-7.14843,5.48584c-1.70424-.02991-2.02643.583-1.87307,2.03773a11.51876,11.51876,0,0,1-.04628,2.58956A1.88019,1.88019,0,0,1,31.24638,48.46807ZM25.68256,38.09636c3.05209,0,6.10449.02694,9.15617-.0086,2.40535-.028,3.79531-1.344,3.81244-3.72229q.06589-9.154.00187-18.30885a3.43725,3.43725,0,0,0-3.76339-3.76882q-9.15519-.04856-18.31079-.00088c-2.5155.01261-3.799,1.341-3.80726,3.88215q-.02917,8.992-.00107,17.98425c.00709,2.62845,1.28868,3.91229,3.929,3.93687C19.69369,38.11806,22.68827,38.09663,25.68256,38.09636Z" fill="#060606"/><path d="M33.4,28.21038c-.00133.86443.012,1.72911-.00442,2.59323-.02517,1.32531-.59673,2.30924-2.00964,2.30326-1.389-.00587-2.00009-.92564-2.0096-2.28965-.008-1.14141.37438-2.71672-.21426-3.31727-.79283-.80886-2.38237-.23384-3.62744-.26844-1.78477-.04959-3.57211.00247-5.35806-.01688-2.01974-.02188-2.63451-.65448-2.65209-2.71249-.01427-1.6711.0005-3.34244-.00153-5.01367-.00166-1.37728.65128-2.264,2.04959-2.21931,1.29246.04126,1.86318.90653,1.90777,2.20457.04085,1.18918-.56942,2.852.26759,3.44292.85778.60562,2.42775.22132,3.68639.23511,1.72833.01893,3.45711-.00617,5.18553.00753,2.13756.01694,2.74472.63483,2.7796,2.8036C33.41146,26.71187,33.40133,27.46121,33.4,28.21038Z" fill="#060606"/><path d="M29.79445,21.29038a15.3265,15.3265,0,0,1-2.05006-.12514,1.82009,1.82009,0,0,1-1.5957-2.092,1.8,1.8,0,0,1,1.73914-1.80421,30.47974,30.47974,0,0,1,3.433-.02953A1.88479,1.88479,0,0,1,33.35,19.13524a1.878,1.878,0,0,1-1.83933,2.07909,13.83172,13.83172,0,0,1-1.71463.01215Z" fill="#060606"/><path d="M20.99656,33.14563c-2.53867.00152-3.46721-.54106-3.46189-2.02084.00533-1.48011.92545-2.01153,3.4865-2.01128.57285,0,1.14957-.03643,1.71776.01646a1.9444,1.9444,0,0,1,2.01659,2.10753A1.91994,1.91994,0,0,1,22.715,33.13943C22.14316,33.16373,21.56943,33.14359,20.99656,33.14563Z" fill="#060606"/></svg>