<svg id="Layer_1" data-name="Layer 1" xmlns="http://www.w3.org/2000/svg" viewBox="0 0 50 50"><path d="M33.71765,38.94276a.70171.70171,0,0,1,.72866.7122,39.45779,39.45779,0,0,1-.04256,4.3653,3.64209,3.64209,0,0,1-3.80513,3.3475q-9.02711.0383-18.05447.00024a3.75026,3.75026,0,0,1-3.876-3.97983q-.003-18.06618.00013-36.13236a3.78842,3.78842,0,0,1,3.9824-3.97448q8.91-.00407,17.82007,0a3.80775,3.80775,0,0,1,3.99135,4.021c.0029,1.66017.00648,3.32039-.00527,4.98049-.00193.27186.04272.3715.34967.37392a1.2381,1.2381,0,0,1,1.36638,1.2784c.05829.5604.13207,1.12.16383,1.682a.37421.37421,0,0,0,.31354.38337,3.21175,3.21175,0,0,1,.81954.33243c.35848.24751.59858.15036.882-.11537.36438-.34157.7629-.64722,1.15315-.9603a1.21466,1.21466,0,0,1,1.7684.04825q1.06492,1.02514,2.08624,2.09546a1.1883,1.1883,0,0,1,.07833,1.66212c-.37018.4843-.76449.95078-1.16261,1.41261-.15245.17684-.2059.32359-.05371.528a1.0457,1.0457,0,0,1,.20417.41848,1.04216,1.04216,0,0,0,1.24432.95951,6.60513,6.60513,0,0,1,1.16438.114,1.19764,1.19764,0,0,1,1.142,1.2072q.04576,1.52557.001,3.0534a1.21544,1.21544,0,0,1-1.19277,1.21209c-.55909.0608-1.11751.1363-1.67833.16858a.3589.3589,0,0,0-.37779.31627,4.0803,4.0803,0,0,1-.33985.91851.61774.61774,0,0,0,.09959.85315c.33128.35233.62795.73883.9237,1.12284a1.21568,1.21568,0,0,1-.078,1.73653q-1.00806,1.04913-2.05534,2.06021a1.21932,1.21932,0,0,1-1.76982.062c-.393-.30922-.78586-.61991-1.16049-.95073a.36871.36871,0,0,0-.52521-.0371,4.23054,4.23054,0,0,1-1.152.50738.38765.38765,0,0,0-.34112.4101c-.02748.48354-.10183.96449-.15926,1.44621a1.25956,1.25956,0,0,1-1.33028,1.22984c-.37442.014-.74942.01254-1.12414.01808-.35954-.00172-.72029-.02348-1.07841-.00168-1.575.09587-1.98233-.4774-2.01567-1.87979-.01629-.68533-.1531-1.24584-.9928-1.32934a2.28713,2.28713,0,0,1-.68071-.30376.44026.44026,0,0,0-.52374.0359q-.49482.42444-.9912.84705l-.09745.08691c-.98334.43452-1.25866.37923-2.04818-.41161-.49521-.49605-.97289-1.01136-1.49-1.48332a1.52184,1.52184,0,0,1-.48768-1.9487l-.00084.00014c.26921-.17492.38005-.49268.61739-.69361.56512-.47842.38446-.96018.20707-1.59684-.26343-.94547-.81591-1.08084-1.6393-1.12173-1.29171-.06415-1.62563-.48182-1.626-1.76616q-.00042-1.36038-.00155-2.72076a1.38406,1.38406,0,0,1,1.29145-1.08571,3.02982,3.02982,0,0,0,1.05354-.13566c.51241.11829.62571-.22024.84659-.59793a1.55668,1.55668,0,0,0-.30979-2.25095,1.484,1.484,0,0,1-.55148-1.66857A20.03277,20.03277,0,0,1,25.808,15.13147a1.048,1.048,0,0,1,1.38694.01309,8.71937,8.71937,0,0,1,1.09273.8756.79014.79014,0,0,0,1.21176.1005c.26657-.085.53139-.17613.80036-.25266a.28678.28678,0,0,0,.2308-.29957c.045-.60378.10589-1.20636.16079-1.80939a1.284,1.284,0,0,1,1.44131-1.11566,3.64521,3.64521,0,0,1,.375.00173c.27265.02662.38991-.06288.38778-.3632-.0128-1.80106.00076-3.60233-.01461-5.40335A1.96981,1.96981,0,0,0,31.86592,5.183c-.59763-.37761-.64612-.35674-1.09412.2006-.08811.10962-.17321.22169-.26214.33063a5.9801,5.9801,0,0,1-4.89045,2.42555c-2.81344-.0289-5.62739-.01082-8.44111-.00769a5.39815,5.39815,0,0,1-1.20251-.15725,6.47871,6.47871,0,0,1-3.67633-2.66643c-.34978-.4553-.45783-.48321-.9589-.18378A2.376,2.376,0,0,0,10.183,7.3371q.00047,17.87847.0002,35.75694c0,.15662-.00548.31352.00173.46982a2.26681,2.26681,0,0,0,2.32982,2.2572q9.05084.00441,18.10168-.00019a2.17449,2.17449,0,0,0,2.27124-2.27017c.00758-1.19029.00268-2.38066.002-3.571a.94426.94426,0,0,1,.6334-1.03176Zm-7.50221-18.3844a1.18183,1.18183,0,0,1-.23174.70154,5.2856,5.2856,0,0,0-.67943,1.53653,1.29409,1.29409,0,0,1-1.24455,1.02217c-.43533.04257-.87006.09289-1.3061.1258-.25106.01895-.34577.12347-.33794.38475.01783.59472.02417,1.19118-.00225,1.78526-.01328.29865.11227.37847.37036.39887.38911.03075.77646.08351,1.16488.12381a1.28352,1.28352,0,0,1,1.31,1.1166,5.69859,5.69859,0,0,0,.60665,1.51665,1.29011,1.29011,0,0,1-.13356,1.68133c-.30655.40683-.91834.78956-.85012,1.215.06683.41676.65179.75275,1.015,1.11856.61623.62069.61813.61889,1.28335.08875.19568-.15594.3937-.30907.58593-.46918a1.26811,1.26811,0,0,1,1.6011-.11775,5.431,5.431,0,0,0,1.55394.63207,1.30308,1.30308,0,0,1,1.108,1.32115c.03624.38962.08428.77823.11516,1.16823.01878.2371.09169.36206.36844.35265.609-.02074,1.21984-.022,1.82874.00057.27688.01025.34309-.10907.36259-.347.03578-.43661.09913-.87091.13774-1.30735a1.26637,1.26637,0,0,1,.97969-1.22463,6.11338,6.11338,0,0,0,1.57793-.697,1.22046,1.22046,0,0,1,1.55988.09493c.394.30841.7862.62013,1.164.94794.16294.14137.26051.15194.41728-.01333q.66215-.6981,1.36015-1.36162c.16533-.15716.15349-.25457.01257-.41756-.34774-.40221-.67577-.82156-1.01017-1.23529a1.23444,1.23444,0,0,1-.15164-1.48249,6.33971,6.33971,0,0,0,.6049-1.568,1.25034,1.25034,0,0,1,1.248-1.0079c.49788-.04439.99363-.12247,1.49218-.1461.3-.01422.35181-.1426.34341-.40761-.01835-.579-.02536-1.15989.00138-1.73823.01375-.29742-.10541-.37737-.36731-.39556-.5142-.0357-1.027-.0918-1.54043-.13881a1.28937,1.28937,0,0,1-1.25183-1.0124,5.48874,5.48874,0,0,0-.60569-1.417,1.22938,1.22938,0,0,1,.12074-1.52282c.35629-.43623.70661-.87779,1.076-1.30268.15913-.18306.1999-.30364-.00374-.49313q-.66972-.62317-1.29307-1.29561c-.18644-.20106-.30561-.1712-.49069-.00873-.423.37135-.86247.72411-1.29912,1.07963a1.22758,1.22758,0,0,1-1.521.124,6.111,6.111,0,0,0-1.413-.611,1.26579,1.26579,0,0,1-1.00791-1.24907c-.0483-.53-.1227-1.058-.1552-1.5887-.01656-.27063-.12679-.3325-.37648-.32535-.578.01657-1.15779.02564-1.73485-.00283-.31677-.01563-.40642.11842-.426.39561-.03427.484-.0832.967-.12918,1.45006a1.27068,1.27068,0,0,1-1.05654,1.26213,5.80177,5.80177,0,0,0-1.47666.57618A1.26436,1.26436,0,0,1,27.93,17.7101c-.39478-.33242-.80631-.64512-1.19577-.98349-.1659-.14413-.2681-.14506-.42262.01732-.43142.45336-.86988.90132-1.32762,1.32763-.20587.19173-.15795.31478-.002.4955.31676.367.61511.75.91906,1.12794A1.314,1.314,0,0,1,26.21544,20.55836ZM29.18669,4.87427H13.94719a4.222,4.222,0,0,0,3.38536,1.72958c2.82774.01907,5.656.029,8.48345-.0047A4.20858,4.20858,0,0,0,29.18669,4.87427Z" fill="#191919"/><path d="M33.71765,38.94276l-.19446.00523c-.127-.13673-.29323-.08051-.44282-.08171-.70292-.00565-1.40593-.00028-2.10889-.00317A1.3439,1.3439,0,0,1,29.59143,37.562c-.02827-.40325-.06635-.8058-.0947-1.209a.47819.47819,0,0,0-.3709-.48163,16.26875,16.26875,0,0,1-1.69193-.67263q.49567-.42342.9912-.84705a.44026.44026,0,0,1,.52374-.0359,2.28713,2.28713,0,0,0,.68071.30376c.8397.0835.97651.644.9928,1.32934.03334,1.40239.4407,1.97566,2.01567,1.87979.35812-.0218.71887,0,1.07841.00168Z" fill="#007334"/><path d="M27.4339,35.19868a16.26875,16.26875,0,0,0,1.69193.67263.47819.47819,0,0,1,.3709.48163c.02835.40324.06643.80579.0947,1.209a1.3439,1.3439,0,0,0,1.38005,1.30113c.703.00289,1.406-.00248,2.10889.00317.14959.0012.31586-.055.44282.08171a.94416.94416,0,0,0-.63346,1.03172c.00066,1.19033.00556,2.3807-.002,3.571a2.17449,2.17449,0,0,1-2.27124,2.27017q-9.05083.005-18.10168.00019a2.26681,2.26681,0,0,1-2.32982-2.2572c-.00721-.1563-.00173-.3132-.00173-.46982q0-17.87847-.0002-35.75694a2.376,2.376,0,0,1,1.15732-2.21251c.50107-.29943.60912-.27152.9589.18378A6.47871,6.47871,0,0,0,15.97559,7.9748a5.39815,5.39815,0,0,0,1.20251.15725c2.81372-.00313,5.62767-.02121,8.44111.00769a5.9801,5.9801,0,0,0,4.89045-2.42555c.08893-.10894.174-.221.26214-.33063.448-.55734.49649-.57821,1.09412-.2006a1.96981,1.96981,0,0,1,1.01487,1.6956c.01537,1.801.00181,3.60229.01461,5.40335.00213.30032-.11513.38982-.38778.3632a3.64521,3.64521,0,0,0-.375-.00173,1.28374,1.28374,0,0,0-1.44116,1.11571,1.02635,1.02635,0,0,0-1.00058.85885c-.0939.49518-.13,1.00137-.19152,1.50272a.79014.79014,0,0,1-1.21176-.1005,8.71937,8.71937,0,0,0-1.09273-.8756,1.048,1.048,0,0,0-1.38694-.01309,20.02554,20.02554,0,0,0-2.61022,2.67273,2.17954,2.17954,0,0,0-.94831.92421,1.10561,1.10561,0,0,0,.108,1.38182c.20382.23219.34831.5216.56968.73235.4581.43615.68959.8886.28524,1.479a3.02982,3.02982,0,0,1-1.05354.13566A1.38408,1.38408,0,0,0,20.86734,23.543a1.23871,1.23871,0,0,0-1.03218,1.39521c-.00053.93662.00442,1.87327-.00226,2.80985a1.23776,1.23776,0,0,0,.40327.95328,1.82472,1.82472,0,0,0,1.25679.38383c.69426.052,1.42461.02466,1.48348,1.01355a.78681.78681,0,0,0,.158.3363,1.10239,1.10239,0,0,1,.1753,1.00708l.00081-.00017c-.51725.22547-.73883.73107-1.0341,1.14952a1.1361,1.1361,0,0,0,.18734,1.5275c.68276.688,1.3695,1.372,2.05329,2.059a1.10184,1.10184,0,0,0,.99379.42038,3.19279,3.19279,0,0,0,1.82556-1.31275ZM17.21679,21.97212c.73017-.04858,1.04275-.29519,1.02178-.80615-.02085-.50823-.34669-.72609-1.08887-.72646q-1.30776-.00067-2.61551.00052c-.74382.00191-.99765.27763-.95988,1.03466a1.03242,1.03242,0,0,0-.89883.28375.72317.72317,0,0,0-.10987.79412.8907.8907,0,0,0,.82467.52127c.88833-.00694,1.77675-.001,2.66514-.00231C16.90361,23.07027,17.16509,22.82156,17.21679,21.97212Zm-3.64721,2.78945a1.25428,1.25428,0,0,1-.403.10094.68512.68512,0,0,0-.64843.75119c.01884.4839.30318.73889.87935.74578.91834.011,1.8369.00389,2.75536.0028.74761-.00088,1.04559-.29669,1.05212-1.04042.66971-.02688,1.034-.31492,1.03407-.81766.00007-.50017-.36794-.76657-1.06554-.76755-.8856-.00123-1.77122-.00433-2.65678.00108C13.83367,23.7419,13.54626,24.05829,13.56958,24.76157Zm.00985,3.38548-.09368.00044c-.65125.00664-.966.25094-.96731.75079q-.002.75225.96312.75412,1.335.0015,2.67.0002c.75625-.00018,1.03682-.27334,1.05842-1.0297.72473-.03241,1.05087-.28722,1.02911-.804-.02118-.50313-.3971-.77985-1.07608-.78237-.85861-.00319-1.71746-.01271-2.5758.003C13.7923,27.054,13.51787,27.36985,13.57943,28.14705ZM21.60086,42.6128c-.51507,0-1.03049-.0118-1.5451.0035a.64436.64436,0,0,0-.70281.70053.69613.69613,0,0,0,.66953.79785q1.5442.03779,3.08985-.00014a.70876.70876,0,0,0,.66713-.80892.69126.69126,0,0,0-.72711-.6906C22.56881,42.60263,22.08472,42.61219,21.60086,42.6128Z" fill="#019242"/><path d="M26.21544,20.55836a1.314,1.314,0,0,0-.31436-.86336c-.304-.378-.6023-.761-.91906-1.12794-.156-.18072-.20392-.30377.002-.4955.45774-.42631.8962-.87427,1.32762-1.32763.15452-.16238.25672-.16145.42262-.01732.38946.33837.801.65107,1.19577.98349a1.26436,1.26436,0,0,0,1.55911.16434,5.80177,5.80177,0,0,1,1.47666-.57618,1.27068,1.27068,0,0,0,1.05654-1.26213c.046-.48309.09491-.96608.12918-1.45006.01963-.27719.10928-.41124.426-.39561.57706.02847,1.15686.0194,1.73485.00283.24969-.00715.35992.05472.37648.32535.0325.53073.1069,1.05875.1552,1.5887A1.26579,1.26579,0,0,0,35.852,17.35641a6.111,6.111,0,0,1,1.413.611,1.22758,1.22758,0,0,0,1.521-.124c.43665-.35552.8761-.70828,1.29912-1.07963.18508-.16247.30425-.19233.49069.00873q.62214.67088,1.29307,1.29561c.20364.18949.16287.31007.00374.49313-.36936.42489-.71968.86645-1.076,1.30268a1.22938,1.22938,0,0,0-.12074,1.52282,5.48874,5.48874,0,0,1,.60569,1.417,1.28937,1.28937,0,0,0,1.25183,1.0124c.51344.047,1.02623.10311,1.54043.13881.2619.01819.38106.09814.36731.39556-.02674.57834-.01973,1.15921-.00138,1.73823.0084.265-.04344.39339-.34341.40761-.49855.02363-.9943.10171-1.49218.1461a1.25034,1.25034,0,0,0-1.248,1.0079,6.33971,6.33971,0,0,1-.6049,1.568,1.23444,1.23444,0,0,0,.15164,1.48249c.3344.41373.66243.83308,1.01017,1.23529.14092.163.15276.2604-.01257.41756q-.69729.66285-1.36015,1.36162c-.15677.16527-.25434.1547-.41728.01333-.37781-.32781-.77-.63953-1.164-.94794a1.22046,1.22046,0,0,0-1.55988-.09493,6.11338,6.11338,0,0,1-1.57793.697,1.26637,1.26637,0,0,0-.97969,1.22463c-.03861.43644-.102.87074-.13774,1.30735-.0195.23794-.08571.35726-.36259.347-.6089-.02256-1.2197-.02131-1.82874-.00057-.27675.00941-.34966-.11555-.36844-.35265-.03088-.39-.07892-.77861-.11516-1.16823a1.30308,1.30308,0,0,0-1.108-1.32115,5.431,5.431,0,0,1-1.55394-.63207,1.26811,1.26811,0,0,0-1.6011.11775c-.19223.16011-.39025.31324-.58593.46918-.66522.53014-.66712.53194-1.28335-.08875-.36318-.36581-.94814-.7018-1.015-1.11856-.06822-.42549.54357-.80822.85012-1.215a1.29011,1.29011,0,0,0,.13356-1.68133,5.69859,5.69859,0,0,1-.60665-1.51665,1.28352,1.28352,0,0,0-1.31-1.1166c-.38842-.0403-.77577-.09306-1.16488-.12381-.25809-.0204-.38364-.10022-.37036-.39887.02642-.59408.02008-1.19054.00225-1.78526-.00783-.26128.08688-.3658.33794-.38475.436-.03291.87077-.08323,1.3061-.1258a1.29409,1.29409,0,0,0,1.24455-1.02217,5.2856,5.2856,0,0,1,.67943-1.53653A1.18183,1.18183,0,0,0,26.21544,20.55836ZM39.68332,25.3443a6.16241,6.16241,0,0,0-5.93946-6.40992,6.30786,6.30786,0,0,0-.70117,12.59587A6.16564,6.16564,0,0,0,39.68332,25.3443Z" fill="#d5d5d5"/><path d="M29.18669,4.87427A4.20858,4.20858,0,0,1,25.816,6.59915c-2.82747.03374-5.65571.02377-8.48345.0047a4.222,4.222,0,0,1-3.38536-1.72958Z" fill="#a1a1a1"/><path d="M23.30976,31.4421a1.10239,1.10239,0,0,0-.1753-1.00708.78681.78681,0,0,1-.158-.3363c-.05887-.98889-.78922-.9615-1.48348-1.01355a1.82472,1.82472,0,0,1-1.25679-.38383,1.23776,1.23776,0,0,1-.40327-.95328c.00668-.93658.00173-1.87323.00226-2.80985A1.23871,1.23871,0,0,1,20.86734,23.543q.00081,1.36038.00156,2.72076c.00039,1.28434.33431,1.702,1.626,1.76616.82339.04089,1.37587.17626,1.6393,1.12173.17739.63666.35805,1.11842-.20707,1.59684C23.68981,30.94942,23.579,31.26718,23.30976,31.4421Z" fill="#007334"/><path d="M27.33645,35.28559a3.19279,3.19279,0,0,1-1.82556,1.31275,1.10184,1.10184,0,0,1-.99379-.42038c-.68379-.687-1.37053-1.371-2.05329-2.059a1.1361,1.1361,0,0,1-.18734-1.5275c.29527-.41845.51685-.92405,1.0341-1.14952a1.52191,1.52191,0,0,0,.48771,1.94873c.5171.472.99478.98727,1.49,1.48332C26.07779,35.66482,26.35311,35.72011,27.33645,35.28559Z" fill="#007334"/><path d="M23.21234,22.32163c.40435-.59045.17286-1.0429-.28524-1.479-.22137-.21075-.36586-.50016-.56968-.73235a1.10561,1.10561,0,0,1-.108-1.38182,2.17954,2.17954,0,0,1,.94831-.92421,1.48377,1.48377,0,0,0,.55139,1.66855,1.55668,1.55668,0,0,1,.30979,2.25095C23.83805,22.10139,23.72475,22.43992,23.21234,22.32163Z" fill="#007334"/><path d="M29.4994,16.12066c.06151-.50135.09762-1.00754.19152-1.50272a1.02635,1.02635,0,0,1,1.00058-.85885c-.05505.603-.11594,1.20556-.16094,1.80934a.28678.28678,0,0,1-.2308.29957C30.03079,15.94453,29.766,16.03566,29.4994,16.12066Z" fill="#007334"/><path d="M13.57943,28.14705c-.06156-.7772.21287-1.0931,1.00776-1.1076.85834-.01567,1.71719-.00615,2.5758-.003.679.00252,1.0549.27924,1.07608.78237.02176.51682-.30438.77163-1.02912.804-.85975-.002-1.71992-.02061-2.57907.001A1.14477,1.14477,0,0,1,13.57943,28.14705Z" fill="#151a17"/><path d="M13.56958,24.76157c-.02332-.70328.26409-1.01967.9472-1.02384.88556-.00541,1.77118-.00231,2.65678-.00108.6976.001,1.06561.26738,1.06554.76755-.00007.50274-.36436.79078-1.03405.81771-.85183-.00011-1.70385-.0102-2.55549.00344A1.074,1.074,0,0,1,13.56958,24.76157Z" fill="#151917"/><path d="M13.57431,21.47469c-.03777-.757.21606-1.03275.95988-1.03466q1.30774-.00336,2.61551-.00052c.74218.00037,1.068.21823,1.08887.72646.021.511-.29161.75757-1.02183.806-.9037-.00674-1.8076-.02833-2.71089-.01317A.93117.93117,0,0,1,13.57431,21.47469Z" fill="#161716"/><path d="M21.60086,42.61249c.48386-.0003.96795-.00986,1.45149.00253a.69126.69126,0,0,1,.72711.6906.70876.70876,0,0,1-.66713.80892q-1.5442.038-3.08985.00014a.69613.69613,0,0,1-.66953-.79785.64436.64436,0,0,1,.70281-.70053C20.57037,42.601,21.08579,42.6128,21.60086,42.61249Z" fill="#161716"/><path d="M13.57431,21.47469a.93117.93117,0,0,0,.93154.4841c.90329-.01516,1.80719.00643,2.71089.01317-.05165.8496-.31313,1.09831-1.16132,1.09956-.88839.00131-1.77681-.00463-2.66514.00231a.8907.8907,0,0,1-.82467-.52127.72317.72317,0,0,1,.10987-.79412A1.03242,1.03242,0,0,1,13.57431,21.47469Z" fill="#007334"/><path d="M13.56958,24.76157a1.074,1.074,0,0,0,1.08.56378c.85164-.01364,1.70366-.00355,2.55549-.00344-.00655.74368-.30453,1.03949-1.05214,1.04037-.91846.00109-1.837.00818-2.75536-.0028-.57617-.00689-.86051-.26188-.87935-.74578a.68512.68512,0,0,1,.64843-.75119A1.25428,1.25428,0,0,0,13.56958,24.76157Z" fill="#007334"/><path d="M13.57943,28.14705a1.14477,1.14477,0,0,0,1.05145.47683c.85915-.02162,1.71932-.003,2.57907-.001-.02159.75639-.30216,1.02955-1.05841,1.02973q-1.335.00032-2.67-.0002-.96627-.00109-.96312-.75412c.00134-.49985.31606-.74415.96731-.75079Z" fill="#007334"/><path d="M39.68332,25.3443a6.16564,6.16564,0,0,1-6.64063,6.18595,6.30786,6.30786,0,0,1,.70117-12.59587A6.16241,6.16241,0,0,1,39.68332,25.3443Zm-6.23105,4.61142a4.66462,4.66462,0,0,0,4.747-4.76414,4.7681,4.7681,0,0,0-9.536-.00106A4.66255,4.66255,0,0,0,33.45227,29.95572Z" fill="#191919"/><path d="M33.45227,29.95572a4.66255,4.66255,0,0,1-4.789-4.7652,4.7681,4.7681,0,0,1,9.536.00106A4.66462,4.66462,0,0,1,33.45227,29.95572Z" fill="#fdfdfd"/></svg>